PathFileType	4	(X/Y/Z)	Walk5.trc
DataRate	CameraRate	NumFrames	NumMarkers	Units	OrigDataRate	OrigDataStartFrame	OrigNumFrames
200.000000	200.000000	8	59	mm	200.000000	281	541
Frame#	Times		LFHD		RFHD		CLAV		STRN		LASI		RASI		RACR1		RUA1		RElbow		RFA1		RWRR		RWRU		RCAR		LACR1		LUA1		LElbow		LFA1		LWRR		LWRU		LCAR		RTH3		RTH2		RMFC		RTB1		RTB3		RTB2		RTB4		LTH1		LTH3		LTH2		LMFC		LTB1		LTB2		LTB4		LMT1		RTH4		RToe		RMT1		LTH4		RTH1		RLFC		RElbowM		RMMAL		LMT5		RBHD		LTB3		RCAL		LToe		LLFC		RBack		RPSI		C7		LMMAL		T10		LPSI		LLMAL		LCAL		LBHD		LElbowM
			X1	Y1	Z1	X2	Y2	Z2	X3	Y3	Z3	X4	Y4	Z4	X5	Y5	Z5	X6	Y6	Z6	X7	Y7	Z7	X8	Y8	Z8	X9	Y9	Z9	X10	Y10	Z10	X11	Y11	Z11	X12	Y12	Z12	X13	Y13	Z13	X14	Y14	Z14	X15	Y15	Z15	X16	Y16	Z16	X17	Y17	Z17	X18	Y18	Z18	X19	Y19	Z19	X20	Y20	Z20	X21	Y21	Z21	X22	Y22	Z22	X23	Y23	Z23	X24	Y24	Z24	X25	Y25	Z25	X26	Y26	Z26	X27	Y27	Z27	X28	Y28	Z28	X29	Y29	Z29	X30	Y30	Z30	X31	Y31	Z31	X32	Y32	Z32	X33	Y33	Z33	X34	Y34	Z34	X35	Y35	Z35	X36	Y36	Z36	X37	Y37	Z37	X38	Y38	Z38	X39	Y39	Z39	X40	Y40	Z40	X41	Y41	Z41	X42	Y42	Z42	X43	Y43	Z43	X44	Y44	Z44	X45	Y45	Z45	X46	Y46	Z46	X47	Y47	Z47	X48	Y48	Z48	X49	Y49	Z49	X50	Y50	Z50	X51	Y51	Z51	X52	Y52	Z52	X53	Y53	Z53	X54	Y54	Z54	X55	Y55	Z55	X56	Y56	Z56	X57	Y57	Z57	X58	Y58	Z58	X59	Y59	Z59

281	1.405	0.19945	1673.4	40.402	4.1121	1669.2	-58.823	9.5666	1408.6	5.5169	76.344	1249.8	7.9889	-54.887	995.63	-168.03	-22.15	990.74	192.82	-109.95	1499.8	169.04	-160.18	1345.5	293.24	-173.26	1200	350.38	-160.35	1047.2	373.32	-147.81	924.93	309.4	-161.27	932.86	389.81	-139.63	842.89	361.32	-104.57	1467.1	-179.81	-97.227	1293	-270.9	-49.433	1138.7	-327.67	28.505	1023.4	-337.23	119.99	930.81	-273.2	92.759	901.95	-336.26	171.62	862.98	-309.15	24.392	641.6	225.24	31.819	746.71	220.52	57.76	531.59	60.217	127.67	423.38	153.74	127.69	251.17	140.83	98.342	334.27	201.48	127.34	336.93	147.57	-137.67	760.98	-182.31	-140.73	592.27	-152.35	-81.448	678.72	-154.11	-141.82	501.44	10.447	-117.66	375.56	-79.74	-171.52	292.08	-111.89	-139.4	296.74	-58.557	-137.13	37.118	-26.396	-16.798	716.79	236.57	264.05	89.029	175	234.84	73.838	132.49	-140.27	677.4	-167.09	-60.533	791.63	242.88	45.693	534	215.13	-230.49	1131.6	256.45	109.74	113.2	79.596	-207.71	25.266	-100.92	-140.97	1583.2	-73.624	-169.71	216.47	-39.819	18.113	61.357	99.266	-83.953	24.794	-67.75	-166.12	507.99	-144.89	-253.39	1379.2	112.74	-292.77	1033.6	61.98	-183.3	1489.1	-2.9864	-261.02	88.492	52.471	-249.86	1175.5	20.096	-291.26	1048.7	-22.347	-292.93	81.377	-31.915	-343.66	59.426	28.832	-133.06	1594.5	73.229	-100.38	1058.6	-242.93
282	1.41	6.2222	1672.5	40.566	10.132	1668.4	-58.659	15.597	1407.6	5.5505	82.199	1248.8	7.7683	-50.028	995.02	-168.41	-15.751	989.49	192.59	-103.66	1498.9	169.2	-154.52	1344.9	293.37	-168.21	1199.3	350.47	-156.13	1046.4	373.42	-144.33	924.04	309.55	-157.76	932.07	389.95	-136.76	841.89	361.46	-98.628	1466.2	-179.64	-90.206	1292.5	-270.87	-41.083	1138.6	-327.81	37.855	1024	-337.2	129.94	932.3	-272.91	103.22	903.23	-336.08	182.36	865.04	-308.72	30.108	640.37	224.85	37.573	745.47	219.97	64.005	530.25	59.334	137.05	424.35	153	141.94	252.19	140.44	110.33	334.59	200.98	139.15	337.93	146.99	-133.57	760.43	-182.39	-137.36	591.73	-152.48	-77.686	677.91	-154.29	-138.52	500.8	10.304	-115.42	374.72	-79.8	-169.85	291.58	-111.89	-137.69	296.05	-58.568	-137.06	37.085	-26.419	-10.967	715.62	236.4	283.01	93.94	174.29	254.07	78.005	131.89	-136.52	676.88	-167.18	-54.607	790.5	242.8	52.473	532.88	214.44	-225.66	1131.2	256.45	127.74	113.64	79.514	-207.74	25.286	-100.82	-134.92	1582.3	-73.465	-168.56	215.99	-39.78	37.732	59.304	99.5	-83.904	24.745	-67.872	-163.15	507.52	-144.93	-247.25	1378.5	113.02	-286.84	1033	62.689	-177.19	1488.3	-2.7549	-260.57	88.653	52.642	-243.92	1174.8	20.731	-285.65	1048.1	-21.53	-292.61	81.68	-31.739	-343.41	59.906	29.055	-126.99	1593.6	73.39	-91.86	1058	-243.47
283	1.415	12.267	1671.7	40.753	16.174	1667.5	-58.472	21.658	1406.6	5.6066	88.085	1247.7	7.5662	-45.192	994.35	-168.84	-9.3489	988.19	192.41	-97.324	1498	169.39	-148.81	1344.2	293.53	-163.13	1198.6	350.57	-151.87	1045.7	373.54	-140.79	923.12	309.7	-154.18	931.26	390.09	-133.83	840.87	361.6	-92.663	1465.4	-179.45	-83.193	1291.9	-270.79	-32.794	1138.5	-327.9	47.126	1024.6	-337.12	139.81	933.75	-272.57	113.59	904.45	-335.84	193	867.05	-308.24	35.726	639	224.49	43.275	744.1	219.42	70.118	528.82	58.46	146.24	425.29	152.22	155.92	253.31	139.99	122.18	334.96	200.47	150.75	338.96	146.36	-129.44	759.85	-182.47	-133.95	591.17	-152.6	-73.894	677.07	-154.45	-135.17	500.14	10.182	-113.15	373.86	-79.853	-168.15	291.08	-111.88	-135.95	295.35	-58.573	-136.99	37.052	-26.437	-5.2033	714.34	236.2	301.59	99.082	173.32	272.9	82.4	131.09	-132.73	676.32	-167.27	-48.709	789.27	242.69	59.211	531.7	213.76	-220.77	1130.8	256.44	145.38	114.3	79.418	-207.76	25.306	-100.71	-128.84	1581.4	-73.279	-167.4	215.5	-39.734	57.073	57.52	99.827	-83.859	24.696	-67.992	-160.14	507.02	-144.97	-241.09	1377.7	113.33	-280.88	1032.3	63.436	-171.06	1487.5	-2.4928	-260.13	88.816	52.813	-237.95	1174.1	21.382	-280	1047.5	-20.681	-292.28	81.995	-31.561	-343.17	60.404	29.276	-120.89	1592.7	73.579	-83.37	1057.3	-243.94
284	1.42	18.335	1670.8	40.966	22.239	1666.7	-58.258	27.75	1405.6	5.6863	94.003	1246.6	7.3833	-40.374	993.61	-169.31	-2.9427	986.86	192.27	-90.962	1497.1	169.61	-143.07	1343.5	293.69	-158.01	1197.9	350.69	-147.55	1044.8	373.66	-137.19	922.18	309.86	-150.53	930.42	390.24	-130.83	839.83	361.75	-86.67	1464.4	-179.24	-76.19	1291.3	-270.68	-24.568	1138.3	-327.95	56.317	1025.2	-336.99	149.58	935.14	-272.2	123.86	905.64	-335.55	203.52	869.01	-307.72	41.264	637.52	224.13	48.937	742.61	218.86	76.1	527.3	57.595	155.27	426.21	151.38	169.64	254.51	139.51	133.87	335.38	199.93	162.12	340.02	145.69	-125.28	759.25	-182.52	-130.5	590.58	-152.71	-70.071	676.22	-154.61	-131.78	499.45	10.079	-110.84	372.98	-79.896	-166.43	290.56	-111.86	-134.18	294.64	-58.571	-136.93	37.018	-26.45	0.50545	712.95	235.97	319.77	104.42	172.11	291.29	86.988	130.09	-128.92	675.75	-167.34	-42.83	787.96	242.55	65.913	530.48	213.09	-215.83	1130.4	256.45	162.64	115.13	79.308	-207.78	25.327	-100.59	-122.74	1580.5	-73.064	-166.22	215	-39.681	76.101	55.989	100.23	-83.819	24.648	-68.109	-157.1	506.5	-145	-234.89	1376.9	113.66	-274.88	1031.5	64.221	-164.9	1486.7	-2.1999	-259.68	88.981	52.985	-231.96	1173.3	22.047	-274.33	1046.8	-19.805	-291.95	82.32	-31.381	-342.93	60.92	29.495	-114.77	1591.8	73.796	-74.912	1056.7	-244.34
285	1.425	24.427	1669.9	41.208	28.327	1665.8	-58.015	33.873	1404.5	5.7903	99.954	1245.5	7.2201	-35.569	992.81	-169.82	3.47	985.48	192.17	-84.57	1496.2	169.84	-137.28	1342.7	293.88	-152.84	1197.1	350.82	-143.17	1044	373.79	-133.52	921.22	310.01	-146.81	929.56	390.39	-127.76	838.78	361.89	-80.648	1463.5	-178.99	-69.195	1290.7	-270.52	-16.408	1138.2	-327.95	65.425	1025.7	-336.82	159.25	936.49	-271.77	134.03	906.78	-335.21	213.94	870.92	-307.15	46.743	635.92	223.79	54.575	741	218.29	81.953	525.71	56.743	164.12	427.08	150.51	183.06	255.79	138.98	145.4	335.84	199.39	173.27	341.1	144.98	-121.09	758.62	-182.56	-127.02	589.97	-152.81	-66.219	675.33	-154.76	-128.36	498.75	9.994	-108.51	372.08	-79.93	-164.7	290.04	-111.84	-132.4	293.91	-58.564	-136.86	36.985	-26.46	6.1759	711.47	235.7	337.51	109.9	170.69	309.21	91.725	128.92	-125.07	675.15	-167.4	-36.964	786.57	242.36	72.587	529.23	212.42	-210.82	1129.9	256.47	179.51	116.12	79.181	-207.81	25.349	-100.46	-116.62	1579.6	-72.817	-165.03	214.49	-39.621	94.78	54.692	100.71	-83.782	24.6	-68.223	-154.02	505.96	-145.02	-228.66	1376.1	114.01	-268.85	1030.8	65.04	-158.71	1485.8	-1.8764	-259.22	89.148	53.158	-225.93	1172.5	22.724	-268.62	1046.1	-18.905	-291.62	82.657	-31.198	-342.69	61.454	29.709	-108.62	1590.8	74.047	-66.487	1056	-244.66
286	1.43	30.543	1668.9	41.483	34.438	1664.9	-57.739	40.028	1403.4	5.919	105.94	1244.3	7.0771	-30.77	991.95	-170.36	9.8915	984.08	192.1	-78.15	1495.2	170.11	-131.45	1341.9	294.09	-147.63	1196.4	350.98	-138.74	1043.1	373.93	-129.78	920.25	310.17	-143.01	928.67	390.55	-124.61	837.7	362.03	-74.599	1462.5	-178.71	-62.21	1290	-270.32	-8.3131	1137.9	-327.9	74.449	1026.2	-336.61	168.83	937.79	-271.31	144.09	907.87	-334.83	224.23	872.78	-306.53	52.187	634.24	223.43	60.206	739.29	217.71	87.682	524.07	55.911	172.82	427.92	149.62	196.19	257.11	138.43	156.74	336.34	198.83	184.18	342.18	144.25	-116.88	757.96	-182.59	-123.51	589.35	-152.89	-62.339	674.42	-154.91	-124.91	498.03	9.9262	-106.14	371.16	-79.955	-162.94	289.5	-111.81	-130.59	293.18	-58.55	-136.79	36.952	-26.467	11.826	709.9	235.4	354.77	115.47	169.09	326.63	96.562	127.6	-121.19	674.52	-167.44	-31.099	785.1	242.13	79.242	527.96	211.76	-205.75	1129.4	256.49	195.96	117.25	79.037	-207.83	25.372	-100.34	-110.47	1578.6	-72.535	-163.82	213.98	-39.553	113.07	53.606	101.22	-83.749	24.553	-68.333	-150.92	505.41	-145.02	-222.41	1375.3	114.39	-262.78	1030	65.89	-152.5	1484.9	-1.5221	-258.77	89.32	53.329	-219.87	1171.7	23.409	-262.87	1045.3	-17.985	-291.27	83.005	-31.015	-342.45	62.006	29.918	-102.45	1589.9	74.332	-58.096	1055.3	-244.9
287	1.435	36.683	1668	41.792	40.572	1663.9	-57.429	46.214	1402.3	6.0728	111.96	1243.1	6.9546	-25.969	991.03	-170.93	16.324	982.64	192.06	-71.703	1494.2	170.39	-125.59	1341.1	294.32	-142.36	1195.5	351.15	-134.23	1042.2	374.08	-125.97	919.25	310.33	-139.13	927.76	390.7	-121.38	836.61	362.17	-68.52	1461.5	-178.39	-55.235	1289.4	-270.07	-0.2855	1137.7	-327.81	83.387	1026.6	-336.35	178.3	939.04	-270.81	154.04	908.92	-334.39	234.41	874.58	-305.87	57.622	632.48	223.06	65.849	737.51	217.12	93.299	522.38	55.104	181.36	428.7	148.71	209.01	258.47	137.86	167.87	336.86	198.26	194.86	343.25	143.49	-112.63	757.28	-182.6	-119.98	588.7	-152.96	-58.432	673.49	-155.04	-121.43	497.3	9.8741	-103.75	370.23	-79.971	-161.18	288.96	-111.77	-128.77	292.44	-58.53	-136.72	36.922	-26.473	17.477	708.26	235.05	371.5	121.08	167.34	343.52	101.45	126.17	-117.29	673.88	-167.48	-25.225	783.57	241.85	85.883	526.68	211.09	-200.6	1128.9	256.54	211.97	118.48	78.872	-207.86	25.395	-100.2	-104.3	1577.6	-72.216	-162.61	213.47	-39.48	130.93	52.711	101.77	-83.719	24.507	-68.438	-147.79	504.83	-145.01	-216.12	1374.4	114.79	-256.68	1029.2	66.767	-146.26	1484	-1.1368	-258.32	89.497	53.496	-213.78	1170.9	24.1	-257.09	1044.5	-17.049	-290.93	83.366	-30.834	-342.21	62.576	30.12	-96.257	1588.8	74.654	-49.742	1054.6	-245.08
288	1.44	42.847	1667	42.14	46.729	1663	-57.081	52.43	1401.2	6.252	118.02	1241.9	6.8534	-21.157	990.05	-171.52	22.77	981.18	192.04	-65.232	1493.1	170.7	-119.68	1340.3	294.57	-137.05	1194.7	351.34	-129.66	1041.2	374.24	-122.08	918.23	310.49	-135.17	926.83	390.86	-118.05	835.5	362.3	-62.413	1460.5	-178.05	-48.268	1288.7	-269.79	7.6744	1137.4	-327.67	92.238	1027	-336.05	187.67	940.24	-270.26	163.88	909.92	-333.92	244.46	876.33	-305.17	63.078	630.67	222.67	71.524	735.68	216.51	98.821	520.66	54.33	189.76	429.43	147.79	221.5	259.84	137.27	178.79	337.39	197.69	205.3	344.29	142.73	-108.35	756.59	-182.59	-116.41	588.04	-153.02	-54.497	672.54	-155.16	-117.93	496.54	9.8367	-101.34	369.29	-79.977	-159.4	288.42	-111.73	-126.93	291.68	-58.505	-136.65	36.893	-26.477	23.151	706.58	234.66	387.68	126.66	165.49	359.84	106.31	124.66	-113.35	673.21	-167.49	-19.328	781.99	241.52	92.521	525.4	210.41	-195.39	1128.3	256.59	227.51	119.78	78.681	-207.88	25.419	-100.06	-98.106	1576.5	-71.86	-161.38	212.96	-39.4	148.31	51.979	102.31	-83.693	24.462	-68.537	-144.63	504.24	-144.99	-209.81	1373.5	115.2	-250.54	1028.3	67.665	-140	1483	-0.72038	-257.86	89.682	53.658	-207.66	1170	24.796	-251.26	1043.7	-16.101	-290.57	83.742	-30.656	-341.96	63.165	30.316	-90.038	1587.8	75.013	-41.428	1053.9	-245.17
